# MagicaVoxel @ Ephtracy

# group
o 

# material
mtllib CubePlayer.mtl
usemtl palette

# normals
vn -1 0 0
vn 1 0 0
vn 0 0 1
vn 0 0 -1
vn 0 -1 0
vn 0 1 0

# texcoords
vt 0.138672 0.5
vt 0.271484 0.5
vt 0.275391 0.5
vt 0.279297 0.5
vt 0.400391 0.5
vt 0.857422 0.5
vt 0.958984 0.5
vt 0.994141 0.5

# verts
v -0.1 0.1 0.1
v -0.1 0.1 -0.1
v -0.1 0.3 0.1
v -0.1 0.3 -0.1
v 1.49012e-08 0 0
v 1.49012e-08 0 -0.1
v 1.49012e-08 0.1 0
v 1.49012e-08 0.1 -0.1
v 1.49012e-08 0.4 0.2
v 1.49012e-08 0.4 0
v 1.49012e-08 0.4 -0.1
v 1.49012e-08 0.4 -0.2
v 1.49012e-08 0.5 0.2
v 1.49012e-08 0.5 0.1
v 1.49012e-08 0.5 0
v 1.49012e-08 0.5 -0.1
v 1.49012e-08 0.5 -0.2
v 1.49012e-08 0.6 0.1
v 1.49012e-08 0.6 0
v 1.49012e-08 0.6 -0.1
v 1.49012e-08 0.6 -0.2
v 1.49012e-08 0.7 0
v 1.49012e-08 0.7 -0.2
v 0.1 0 0.1
v 0.1 0 0
v 0.1 0.1 0.1
v 0.1 0.1 0
v 0.1 0.2 0.2
v 0.1 0.2 0.1
v 0.1 0.2 -0.1
v 0.1 0.2 -0.2
v 0.1 0.3 0.3
v 0.1 0.3 0.2
v 0.1 0.3 0.1
v 0.1 0.3 -0.1
v 0.1 0.3 -0.2
v 0.1 0.3 -0.3
v 0.1 0.4 0.3
v 0.1 0.4 0.2
v 0.1 0.4 0
v 0.1 0.4 -0.1
v 0.1 0.4 -0.2
v 0.1 0.4 -0.3
v 0.1 0.5 0.3
v 0.1 0.5 0.2
v 0.1 0.5 0
v 0.1 0.5 -0.1
v 0.1 0.5 -0.2
v 0.1 0.5 -0.3
v 0.1 0.6 0.1
v 0.1 0.6 0
v 0.1 0.6 -0.1
v 0.1 0.6 -0.2
v 0.1 0.6 -0.3
v 0.1 0.7 0.1
v 0.1 0.7 0
v 0.2 0 0.2
v 0.2 0 0.1
v 0.2 0 -0.1
v 0.2 0 -0.2
v 0.2 0.1 0.1
v 0.2 0.1 -0.1
v 0.2 0.2 0.3
v 0.2 0.2 0.2
v 0.2 0.2 0.1
v 0.2 0.2 -0.1
v 0.2 0.2 -0.2
v 0.2 0.3 0.3
v 0.2 0.3 0.2
v 0.2 0.5 0.3
v 0.2 0.5 0.2
v 0.2 0.5 0.1
v 0.2 0.6 0.3
v 0.2 0.6 0.2
v 0.2 0.6 0.1
v 0.2 0.6 -0.1
v 0.2 0.6 -0.2
v 0.2 0.7 0.1
v 0.2 0.7 0
v 0.2 0.7 -0.1
v 0.2 0.7 -0.2
v 0.2 0.8 0.1
v 0.2 0.8 0
v 0.2 0.8 -0.1
v 0.3 0 0.3
v 0.3 0 0.2
v 0.3 0.1 -0.2
v 0.3 0.1 -0.3
v 0.3 0.2 0.3
v 0.3 0.2 0.2
v 0.3 0.2 -0.2
v 0.3 0.2 -0.3
v 0.3 0.3 0.4
v 0.3 0.3 0.3
v 0.3 0.3 -0.3
v 0.3 0.3 -0.4
v 0.3 0.4 0.4
v 0.3 0.4 0.3
v 0.3 0.4 -0.3
v 0.3 0.4 -0.4
v 0.3 0.5 -0.3
v 0.3 0.5 -0.4
v 0.3 0.6 0.2
v 0.3 0.6 0.1
v 0.3 0.6 -0.2
v 0.3 0.6 -0.3
v 0.3 0.7 0.2
v 0.3 0.7 0.1
v 0.3 0.7 -0.2
v 0.3 0.7 -0.3
v 0.4 0 -0.2
v 0.4 0 -0.3
v 0.4 0.1 -0.2
v 0.4 0.1 -0.3
v 0.4 0.2 -0.2
v 0.4 0.2 -0.3
v 0.4 0.3 0.5
v 0.4 0.3 0.4
v 0.4 0.3 -0.2
v 0.4 0.3 -0.3
v 0.4 0.3 -0.4
v 0.4 0.3 -0.5
v 0.4 0.4 0.5
v 0.4 0.4 0.4
v 0.4 0.4 0.3
v 0.4 0.4 -0.1
v 0.4 0.4 -0.3
v 0.4 0.4 -0.4
v 0.4 0.4 -0.5
v 0.4 0.5 0.3
v 0.4 0.5 -0.1
v 0.4 0.5 -0.3
v 0.4 0.5 -0.4
v 0.4 0.6 0.4
v 0.4 0.6 0.3
v 0.4 0.6 0.2
v 0.4 0.6 -0.1
v 0.4 0.6 -0.2
v 0.4 0.6 -0.3
v 0.4 0.6 -0.4
v 0.4 0.7 0.3
v 0.4 0.7 0.2
v 0.4 0.7 0.1
v 0.4 0.7 0
v 0.4 0.7 -0.1
v 0.4 0.7 -0.2
v 0.4 0.8 0.1
v 0.4 0.8 0
v 0.1 0.6 -0.1
v 0.1 0.6 -0.2
v 0.1 0.7 -0.1
v 0.1 0.7 -0.2
v 0.2 0.4 -0.2
v 0.2 0.4 -0.3
v 0.2 0.5 -0.2
v 0.2 0.5 -0.3
v 0.3 0.4 -0.1
v 0.3 0.4 -0.2
v 0.3 0.5 -0.1
v 0.3 0.5 -0.2
v 0.3 0.6 -0.1
v 0.3 0.6 -0.2
v 0.3 0.7 0.1
v 0.3 0.7 0
v 0.3 0.7 -0.1
v 0.3 0.7 -0.2
v 0.3 0.8 0.1
v 0.3 0.8 0
v 0.5 0 0.3
v 0.5 0 -0.3
v 0.5 0.3 0.5
v 0.5 0.3 0.3
v 0.5 0.3 -0.3
v 0.5 0.3 -0.5
v 0.5 0.4 0.5
v 0.5 0.4 0.4
v 0.5 0.4 -0.4
v 0.5 0.4 -0.5
v 0.5 0.6 0.4
v 0.5 0.6 0.3
v 0.5 0.6 -0.3
v 0.5 0.6 -0.4
v 0.5 0.7 0.3
v 0.5 0.7 0.1
v 0.5 0.7 -0.1
v 0.5 0.7 -0.3
v 0.5 0.8 0.1
v 0.5 0.8 -0.1
v 0.4 0.3 0.5
v 0.4 0.4 0.5
v 0.5 0.3 0.5
v 0.5 0.4 0.5
v 0.3 0.3 0.4
v 0.3 0.4 0.4
v 0.4 0.3 0.4
v 0.4 0.4 0.4
v 0.4 0.6 0.4
v 0.5 0.4 0.4
v 0.5 0.6 0.4
v 0.1 0.3 0.3
v 0.1 0.4 0.3
v 0.1 0.5 0.3
v 0.2 0.2 0.3
v 0.2 0.3 0.3
v 0.2 0.4 0.3
v 0.2 0.5 0.3
v 0.2 0.6 0.3
v 0.3 0 0.3
v 0.3 0.2 0.3
v 0.3 0.3 0.3
v 0.3 0.4 0.3
v 0.3 0.5 0.3
v 0.3 0.6 0.3
v 0.4 0.2 0.3
v 0.4 0.3 0.3
v 0.4 0.4 0.3
v 0.4 0.5 0.3
v 0.4 0.6 0.3
v 0.4 0.7 0.3
v 0.5 0 0.3
v 0.5 0.3 0.3
v 0.5 0.6 0.3
v 0.5 0.7 0.3
v 1.49012e-08 0.4 0.2
v 1.49012e-08 0.5 0.2
v 0.1 0.2 0.2
v 0.1 0.3 0.2
v 0.1 0.4 0.2
v 0.1 0.5 0.2
v 0.2 0 0.2
v 0.2 0.2 0.2
v 0.2 0.3 0.2
v 0.3 0 0.2
v 0.3 0.2 0.2
v 0.3 0.6 0.2
v 0.3 0.7 0.2
v 0.4 0.6 0.2
v 0.4 0.7 0.2
v -0.1 0.1 0.1
v -0.1 0.3 0.1
v 1.49012e-08 0.5 0.1
v 1.49012e-08 0.6 0.1
v 0.1 0 0.1
v 0.1 0.1 0.1
v 0.1 0.2 0.1
v 0.1 0.3 0.1
v 0.1 0.5 0.1
v 0.1 0.6 0.1
v 0.1 0.7 0.1
v 0.2 0 0.1
v 0.2 0.1 0.1
v 0.2 0.2 0.1
v 0.2 0.5 0.1
v 0.2 0.6 0.1
v 0.2 0.7 0.1
v 0.2 0.8 0.1
v 0.3 0.6 0.1
v 0.3 0.7 0.1
v 0.3 0.8 0.1
v 0.4 0.7 0.1
v 0.4 0.8 0.1
v 0.5 0.7 0.1
v 0.5 0.8 0.1
v 1.49012e-08 0 0
v 1.49012e-08 0.1 0
v 1.49012e-08 0.6 0
v 1.49012e-08 0.7 0
v 0.1 0 0
v 0.1 0.1 0
v 0.1 0.6 0
v 0.1 0.7 0
v 0.3 0.7 0
v 0.3 0.8 0
v 0.4 0.7 0
v 0.4 0.8 0
v 1.49012e-08 0.5 -0.1
v 1.49012e-08 0.6 -0.1
v 0.1 0.5 -0.1
v 0.1 0.6 -0.1
v 0.3 0.6 -0.2
v 0.3 0.7 -0.2
v 0.4 0.6 -0.2
v 0.4 0.7 -0.2
v 0.3 0.4 -0.3
v 0.3 0.5 -0.3
v 0.4 0.4 -0.3
v 0.4 0.5 -0.3
v 1.49012e-08 0.5 0
v 1.49012e-08 0.6 0
v 0.1 0.5 0
v 0.1 0.6 0
v -0.1 0.1 -0.1
v -0.1 0.3 -0.1
v 1.49012e-08 0 -0.1
v 1.49012e-08 0.1 -0.1
v 0.1 0.2 -0.1
v 0.1 0.3 -0.1
v 0.1 0.6 -0.1
v 0.1 0.7 -0.1
v 0.2 0 -0.1
v 0.2 0.1 -0.1
v 0.2 0.2 -0.1
v 0.2 0.6 -0.1
v 0.2 0.7 -0.1
v 0.2 0.8 -0.1
v 0.3 0.4 -0.1
v 0.3 0.5 -0.1
v 0.3 0.6 -0.1
v 0.3 0.7 -0.1
v 0.4 0.4 -0.1
v 0.4 0.5 -0.1
v 0.4 0.6 -0.1
v 0.4 0.7 -0.1
v 0.4 0.8 -0.1
v 0.5 0.7 -0.1
v 0.5 0.8 -0.1
v 1.49012e-08 0.4 -0.2
v 1.49012e-08 0.5 -0.2
v 1.49012e-08 0.6 -0.2
v 1.49012e-08 0.7 -0.2
v 0.1 0.2 -0.2
v 0.1 0.3 -0.2
v 0.1 0.4 -0.2
v 0.1 0.5 -0.2
v 0.1 0.6 -0.2
v 0.1 0.7 -0.2
v 0.2 0 -0.2
v 0.2 0.2 -0.2
v 0.2 0.3 -0.2
v 0.2 0.4 -0.2
v 0.2 0.5 -0.2
v 0.2 0.6 -0.2
v 0.2 0.7 -0.2
v 0.3 0.1 -0.2
v 0.3 0.2 -0.2
v 0.3 0.4 -0.2
v 0.3 0.5 -0.2
v 0.3 0.6 -0.2
v 0.3 0.7 -0.2
v 0.4 0 -0.2
v 0.4 0.1 -0.2
v 0.4 0.2 -0.2
v 0.4 0.3 -0.2
v 0.1 0.3 -0.3
v 0.1 0.4 -0.3
v 0.1 0.5 -0.3
v 0.1 0.6 -0.3
v 0.2 0.4 -0.3
v 0.2 0.5 -0.3
v 0.3 0.1 -0.3
v 0.3 0.2 -0.3
v 0.3 0.3 -0.3
v 0.3 0.4 -0.3
v 0.3 0.5 -0.3
v 0.3 0.6 -0.3
v 0.3 0.7 -0.3
v 0.4 0 -0.3
v 0.4 0.1 -0.3
v 0.4 0.2 -0.3
v 0.4 0.3 -0.3
v 0.4 0.5 -0.3
v 0.4 0.6 -0.3
v 0.4 0.7 -0.3
v 0.5 0 -0.3
v 0.5 0.3 -0.3
v 0.5 0.6 -0.3
v 0.5 0.7 -0.3
v 0.3 0.3 -0.4
v 0.3 0.4 -0.4
v 0.3 0.5 -0.4
v 0.4 0.3 -0.4
v 0.4 0.4 -0.4
v 0.4 0.5 -0.4
v 0.4 0.6 -0.4
v 0.5 0.4 -0.4
v 0.5 0.6 -0.4
v 0.4 0.3 -0.5
v 0.4 0.4 -0.5
v 0.5 0.3 -0.5
v 0.5 0.4 -0.5
v 0.3 0 0.3
v 0.5 0 0.3
v 0.2 0 0.2
v 0.3 0 0.2
v 0.1 0 0.1
v 0.2 0 0.1
v 1.49012e-08 0 0
v 0.1 0 0
v 1.49012e-08 0 -0.1
v 0.2 0 -0.1
v 0.2 0 -0.2
v 0.4 0 -0.2
v 0.4 0 -0.3
v 0.5 0 -0.3
v -0.1 0.1 0.1
v 0.1 0.1 0.1
v 1.49012e-08 0.1 0
v 0.1 0.1 0
v -0.1 0.1 -0.1
v 1.49012e-08 0.1 -0.1
v 0.3 0.1 -0.2
v 0.4 0.1 -0.2
v 0.3 0.1 -0.3
v 0.4 0.1 -0.3
v 0.2 0.2 0.3
v 0.3 0.2 0.3
v 0.1 0.2 0.2
v 0.2 0.2 0.2
v 0.3 0.2 0.2
v 0.1 0.2 0.1
v 0.2 0.2 0.1
v 0.1 0.2 -0.1
v 0.2 0.2 -0.1
v 0.1 0.2 -0.2
v 0.2 0.2 -0.2
v 0.4 0.3 0.5
v 0.5 0.3 0.5
v 0.3 0.3 0.4
v 0.4 0.3 0.4
v 0.1 0.3 0.3
v 0.2 0.3 0.3
v 0.3 0.3 0.3
v 0.4 0.3 0.3
v 0.5 0.3 0.3
v 0.1 0.3 0.2
v 0.2 0.3 0.2
v 0.1 0.3 -0.2
v 0.2 0.3 -0.2
v 0.4 0.3 -0.2
v 0.1 0.3 -0.3
v 0.3 0.3 -0.3
v 0.4 0.3 -0.3
v 0.5 0.3 -0.3
v 0.3 0.3 -0.4
v 0.4 0.3 -0.4
v 0.4 0.3 -0.5
v 0.5 0.3 -0.5
v 1.49012e-08 0.4 0.2
v 0.1 0.4 0.2
v 1.49012e-08 0.4 0
v 0.1 0.4 0
v 1.49012e-08 0.4 -0.1
v 0.1 0.4 -0.1
v 1.49012e-08 0.4 -0.2
v 0.1 0.4 -0.2
v 0.3 0.5 -0.1
v 0.4 0.5 -0.1
v 0.2 0.5 -0.2
v 0.3 0.5 -0.2
v 0.2 0.5 -0.3
v 0.3 0.5 -0.3
v 0.4 0.5 -0.3
v 1.49012e-08 0.6 0
v 0.1 0.6 0
v 1.49012e-08 0.6 -0.1
v 0.1 0.6 -0.1
v 0.3 0.2 -0.2
v 0.4 0.2 -0.2
v 0.3 0.2 -0.3
v 0.4 0.2 -0.3
v -0.1 0.3 0.1
v 0.1 0.3 0.1
v -0.1 0.3 -0.1
v 0.1 0.3 -0.1
v 0.4 0.4 0.5
v 0.5 0.4 0.5
v 0.3 0.4 0.4
v 0.4 0.4 0.4
v 0.5 0.4 0.4
v 0.3 0.4 0.3
v 0.4 0.4 0.3
v 0.3 0.4 -0.1
v 0.4 0.4 -0.1
v 0.2 0.4 -0.2
v 0.3 0.4 -0.2
v 0.2 0.4 -0.3
v 0.3 0.4 -0.3
v 0.4 0.4 -0.3
v 0.4 0.4 -0.4
v 0.5 0.4 -0.4
v 0.4 0.4 -0.5
v 0.5 0.4 -0.5
v 0.1 0.5 0.3
v 0.2 0.5 0.3
v 1.49012e-08 0.5 0.2
v 0.1 0.5 0.2
v 0.2 0.5 0.2
v 1.49012e-08 0.5 0.1
v 0.1 0.5 0.1
v 0.2 0.5 0.1
v 1.49012e-08 0.5 0
v 0.1 0.5 0
v 1.49012e-08 0.5 -0.1
v 0.1 0.5 -0.1
v 0.3 0.5 -0.3
v 0.4 0.5 -0.3
v 0.3 0.5 -0.4
v 0.4 0.5 -0.4
v 0.4 0.6 0.4
v 0.5 0.6 0.4
v 0.2 0.6 0.3
v 0.3 0.6 0.3
v 0.4 0.6 0.3
v 0.5 0.6 0.3
v 0.2 0.6 0.2
v 0.3 0.6 0.2
v 0.4 0.6 0.2
v 1.49012e-08 0.6 0.1
v 0.1 0.6 0.1
v 0.2 0.6 0.1
v 0.3 0.6 0.1
v 1.49012e-08 0.6 0
v 0.1 0.6 0
v 0.1 0.6 -0.1
v 0.2 0.6 -0.1
v 0.3 0.6 -0.1
v 0.4 0.6 -0.1
v 0.1 0.6 -0.2
v 0.2 0.6 -0.2
v 0.3 0.6 -0.2
v 0.4 0.6 -0.2
v 0.1 0.6 -0.3
v 0.3 0.6 -0.3
v 0.4 0.6 -0.3
v 0.5 0.6 -0.3
v 0.4 0.6 -0.4
v 0.5 0.6 -0.4
v 0.4 0.7 0.3
v 0.5 0.7 0.3
v 0.3 0.7 0.2
v 0.4 0.7 0.2
v 0.1 0.7 0.1
v 0.2 0.7 0.1
v 0.3 0.7 0.1
v 0.4 0.7 0.1
v 0.5 0.7 0.1
v 1.49012e-08 0.7 0
v 0.1 0.7 0
v 0.2 0.7 0
v 0.3 0.7 0
v 0.4 0.7 0
v 0.1 0.7 -0.1
v 0.2 0.7 -0.1
v 0.3 0.7 -0.1
v 0.4 0.7 -0.1
v 0.5 0.7 -0.1
v 1.49012e-08 0.7 -0.2
v 0.1 0.7 -0.2
v 0.2 0.7 -0.2
v 0.3 0.7 -0.2
v 0.4 0.7 -0.2
v 0.3 0.7 -0.3
v 0.4 0.7 -0.3
v 0.5 0.7 -0.3
v 0.2 0.8 0.1
v 0.3 0.8 0.1
v 0.4 0.8 0.1
v 0.5 0.8 0.1
v 0.2 0.8 0
v 0.3 0.8 0
v 0.4 0.8 0
v 0.2 0.8 -0.1
v 0.4 0.8 -0.1
v 0.5 0.8 -0.1

# faces
f 3/7/1 2/7/1 1/7/1
f 4/7/1 2/7/1 3/7/1
f 7/8/1 6/8/1 5/8/1
f 8/8/1 6/8/1 7/8/1
f 13/6/1 10/6/1 9/6/1
f 14/6/1 10/6/1 13/6/1
f 15/5/1 11/5/1 10/5/1
f 15/6/1 10/6/1 14/6/1
f 16/2/1 12/2/1 11/2/1
f 16/5/1 11/5/1 15/5/1
f 17/2/1 12/2/1 16/2/1
f 18/2/1 15/2/1 14/2/1
f 19/2/1 15/2/1 18/2/1
f 20/6/1 17/6/1 16/6/1
f 21/6/1 17/6/1 20/6/1
f 22/3/1 20/3/1 19/3/1
f 22/3/1 21/3/1 20/3/1
f 23/3/1 21/3/1 22/3/1
f 26/8/1 25/8/1 24/8/1
f 27/8/1 25/8/1 26/8/1
f 33/8/1 29/8/1 28/8/1
f 34/8/1 29/8/1 33/8/1
f 35/8/1 31/8/1 30/8/1
f 36/8/1 31/8/1 35/8/1
f 38/6/1 33/6/1 32/6/1
f 39/3/1 34/3/1 33/3/1
f 39/6/1 33/6/1 38/6/1
f 39/3/1 37/3/1 36/3/1
f 39/3/1 36/3/1 35/3/1
f 39/3/1 35/3/1 34/3/1
f 40/3/1 37/3/1 39/3/1
f 41/3/1 37/3/1 40/3/1
f 42/3/1 37/3/1 41/3/1
f 43/3/1 37/3/1 42/3/1
f 44/7/1 39/7/1 38/7/1
f 45/7/1 39/7/1 44/7/1
f 48/1/1 43/1/1 42/1/1
f 49/1/1 43/1/1 48/1/1
f 51/7/1 47/7/1 46/7/1
f 52/7/1 47/7/1 51/7/1
f 53/3/1 49/3/1 48/3/1
f 54/3/1 49/3/1 53/3/1
f 55/3/1 51/3/1 50/3/1
f 56/3/1 51/3/1 55/3/1
f 61/7/1 58/7/1 57/7/1
f 62/7/1 60/7/1 59/7/1
f 64/7/1 61/7/1 57/7/1
f 65/7/1 61/7/1 64/7/1
f 66/7/1 60/7/1 62/7/1
f 67/7/1 60/7/1 66/7/1
f 68/4/1 64/4/1 63/4/1
f 69/4/1 64/4/1 68/4/1
f 73/1/1 71/1/1 70/1/1
f 74/3/1 72/3/1 71/3/1
f 74/1/1 71/1/1 73/1/1
f 75/3/1 72/3/1 74/3/1
f 80/6/1 77/6/1 76/6/1
f 81/6/1 77/6/1 80/6/1
f 82/7/1 79/7/1 78/7/1
f 83/6/1 80/6/1 79/6/1
f 83/7/1 79/7/1 82/7/1
f 84/6/1 80/6/1 83/6/1
f 89/7/1 86/7/1 85/7/1
f 90/7/1 86/7/1 89/7/1
f 91/7/1 88/7/1 87/7/1
f 92/7/1 88/7/1 91/7/1
f 97/4/1 94/4/1 93/4/1
f 98/4/1 94/4/1 97/4/1
f 99/3/1 96/3/1 95/3/1
f 100/3/1 96/3/1 99/3/1
f 101/7/1 100/7/1 99/7/1
f 102/7/1 100/7/1 101/7/1
f 107/4/1 104/4/1 103/4/1
f 108/4/1 104/4/1 107/4/1
f 109/7/1 106/7/1 105/7/1
f 110/7/1 106/7/1 109/7/1
f 113/7/1 112/7/1 111/7/1
f 114/7/1 112/7/1 113/7/1
f 119/7/1 116/7/1 115/7/1
f 120/7/1 116/7/1 119/7/1
f 123/1/1 118/1/1 117/1/1
f 124/1/1 118/1/1 123/1/1
f 128/1/1 122/1/1 121/1/1
f 129/1/1 122/1/1 128/1/1
f 130/1/1 125/1/1 124/1/1
f 131/1/1 127/1/1 126/1/1
f 132/1/1 127/1/1 131/1/1
f 134/1/1 130/1/1 124/1/1
f 135/1/1 130/1/1 134/1/1
f 139/1/1 133/1/1 132/1/1
f 140/1/1 133/1/1 139/1/1
f 141/1/1 136/1/1 135/1/1
f 142/1/1 136/1/1 141/1/1
f 145/1/1 138/1/1 137/1/1
f 146/1/1 138/1/1 145/1/1
f 147/1/1 144/1/1 143/1/1
f 148/1/1 144/1/1 147/1/1
f 149/3/2 150/3/2 151/3/2
f 151/3/2 150/3/2 152/3/2
f 153/1/2 154/1/2 155/1/2
f 155/1/2 154/1/2 156/1/2
f 157/1/2 158/1/2 159/1/2
f 159/1/2 158/1/2 160/1/2
f 161/6/2 162/6/2 165/6/2
f 165/6/2 162/6/2 166/6/2
f 163/7/2 164/7/2 167/7/2
f 167/7/2 164/7/2 168/7/2
f 169/7/2 170/7/2 172/7/2
f 172/7/2 170/7/2 173/7/2
f 171/1/2 172/1/2 175/1/2
f 173/1/2 174/1/2 175/1/2
f 172/1/2 173/1/2 175/1/2
f 175/1/2 174/1/2 176/1/2
f 176/1/2 174/1/2 177/1/2
f 177/1/2 174/1/2 178/1/2
f 176/1/2 177/1/2 179/1/2
f 179/1/2 177/1/2 180/1/2
f 180/1/2 177/1/2 181/1/2
f 181/1/2 177/1/2 182/1/2
f 180/1/2 181/1/2 183/1/2
f 183/1/2 181/1/2 184/1/2
f 184/1/2 181/1/2 185/1/2
f 185/1/2 181/1/2 186/1/2
f 184/1/2 185/1/2 187/1/2
f 187/1/2 185/1/2 188/1/2
f 191/1/3 190/1/3 189/1/3
f 192/1/3 190/1/3 191/1/3
f 195/4/3 194/4/3 193/4/3
f 196/4/3 194/4/3 195/4/3
f 198/1/3 197/1/3 196/1/3
f 199/1/3 197/1/3 198/1/3
f 204/6/3 201/6/3 200/6/3
f 205/7/3 202/7/3 201/7/3
f 205/6/3 201/6/3 204/6/3
f 206/7/3 202/7/3 205/7/3
f 209/4/3 204/4/3 203/4/3
f 209/4/3 205/4/3 204/4/3
f 210/4/3 205/4/3 209/4/3
f 211/3/3 206/3/3 205/3/3
f 211/4/3 205/4/3 210/4/3
f 212/1/3 207/1/3 206/1/3
f 212/3/3 206/3/3 211/3/3
f 213/1/3 207/1/3 212/1/3
f 214/4/3 210/4/3 209/4/3
f 214/7/3 209/7/3 208/7/3
f 215/4/3 210/4/3 214/4/3
f 216/3/3 212/3/3 211/3/3
f 217/7/3 213/7/3 212/7/3
f 217/3/3 212/3/3 216/3/3
f 218/7/3 213/7/3 217/7/3
f 220/7/3 215/7/3 214/7/3
f 220/7/3 214/7/3 208/7/3
f 221/7/3 215/7/3 220/7/3
f 222/1/3 219/1/3 218/1/3
f 223/1/3 219/1/3 222/1/3
f 228/6/3 225/6/3 224/6/3
f 229/6/3 225/6/3 228/6/3
f 231/8/3 227/8/3 226/8/3
f 232/8/3 227/8/3 231/8/3
f 233/7/3 231/7/3 230/7/3
f 234/7/3 231/7/3 233/7/3
f 237/4/3 236/4/3 235/4/3
f 238/4/3 236/4/3 237/4/3
f 244/7/3 240/7/3 239/7/3
f 245/7/3 240/7/3 244/7/3
f 246/7/3 240/7/3 245/7/3
f 247/2/3 242/2/3 241/2/3
f 248/2/3 242/2/3 247/2/3
f 250/8/3 244/8/3 243/8/3
f 251/7/3 245/7/3 244/7/3
f 251/8/3 244/8/3 250/8/3
f 252/7/3 245/7/3 251/7/3
f 253/3/3 249/3/3 248/3/3
f 253/3/3 248/3/3 247/3/3
f 254/3/3 249/3/3 253/3/3
f 255/3/3 249/3/3 254/3/3
f 257/3/3 255/3/3 254/3/3
f 258/7/3 256/7/3 255/7/3
f 258/3/3 255/3/3 257/3/3
f 259/7/3 256/7/3 258/7/3
f 262/1/3 261/1/3 260/1/3
f 263/1/3 261/1/3 262/1/3
f 268/8/3 265/8/3 264/8/3
f 269/8/3 265/8/3 268/8/3
f 270/3/3 267/3/3 266/3/3
f 271/3/3 267/3/3 270/3/3
f 274/6/3 273/6/3 272/6/3
f 275/6/3 273/6/3 274/6/3
f 278/6/3 277/6/3 276/6/3
f 279/6/3 277/6/3 278/6/3
f 282/7/3 281/7/3 280/7/3
f 283/7/3 281/7/3 282/7/3
f 286/7/3 285/7/3 284/7/3
f 287/7/3 285/7/3 286/7/3
f 288/2/4 289/2/4 290/2/4
f 290/2/4 289/2/4 291/2/4
f 292/7/4 293/7/4 295/7/4
f 295/7/4 293/7/4 296/7/4
f 296/7/4 293/7/4 297/7/4
f 294/8/4 295/8/4 300/8/4
f 295/7/4 296/7/4 301/7/4
f 300/8/4 295/8/4 301/8/4
f 301/7/4 296/7/4 302/7/4
f 298/3/4 299/3/4 303/3/4
f 303/3/4 299/3/4 304/3/4
f 304/6/4 305/6/4 309/6/4
f 306/3/4 307/3/4 310/3/4
f 310/3/4 307/3/4 311/3/4
f 308/3/4 309/3/4 312/3/4
f 309/6/4 305/6/4 313/6/4
f 312/3/4 309/3/4 313/3/4
f 313/6/4 305/6/4 314/6/4
f 313/1/4 314/1/4 315/1/4
f 315/1/4 314/1/4 316/1/4
f 317/2/4 318/2/4 323/2/4
f 318/6/4 319/6/4 324/6/4
f 323/2/4 318/2/4 324/2/4
f 319/3/4 320/3/4 325/3/4
f 324/6/4 319/6/4 325/6/4
f 325/3/4 320/3/4 326/3/4
f 321/8/4 322/8/4 328/8/4
f 328/8/4 322/8/4 329/8/4
f 327/7/4 328/7/4 334/7/4
f 328/7/4 329/7/4 334/7/4
f 334/7/4 329/7/4 335/7/4
f 330/1/4 331/1/4 336/1/4
f 336/1/4 331/1/4 337/1/4
f 332/6/4 333/6/4 338/6/4
f 338/6/4 333/6/4 339/6/4
f 327/7/4 334/7/4 340/7/4
f 340/7/4 334/7/4 341/7/4
f 335/7/4 329/7/4 342/7/4
f 342/7/4 329/7/4 343/7/4
f 344/3/4 345/3/4 348/3/4
f 345/1/4 346/1/4 348/1/4
f 346/3/4 347/3/4 349/3/4
f 348/1/4 346/1/4 349/1/4
f 344/3/4 348/3/4 352/3/4
f 352/3/4 348/3/4 353/3/4
f 349/3/4 347/3/4 354/3/4
f 354/3/4 347/3/4 355/3/4
f 350/7/4 351/7/4 358/7/4
f 358/7/4 351/7/4 359/7/4
f 354/3/4 355/3/4 361/3/4
f 355/7/4 356/7/4 362/7/4
f 361/3/4 355/3/4 362/3/4
f 362/7/4 356/7/4 363/7/4
f 359/7/4 360/7/4 364/7/4
f 357/7/4 358/7/4 364/7/4
f 358/7/4 359/7/4 364/7/4
f 364/7/4 360/7/4 365/7/4
f 362/1/4 363/1/4 366/1/4
f 366/1/4 363/1/4 367/1/4
f 368/3/4 369/3/4 371/3/4
f 369/7/4 370/7/4 372/7/4
f 371/3/4 369/3/4 372/3/4
f 372/7/4 370/7/4 373/7/4
f 373/1/4 374/1/4 375/1/4
f 372/1/4 373/1/4 375/1/4
f 375/1/4 374/1/4 376/1/4
f 377/1/4 378/1/4 379/1/4
f 379/1/4 378/1/4 380/1/4
f 384/7/5 382/7/5 381/7/5
f 386/7/5 384/7/5 383/7/5
f 388/8/5 386/8/5 385/8/5
f 389/8/5 388/8/5 387/8/5
f 390/7/5 384/7/5 386/7/5
f 390/8/5 388/8/5 389/8/5
f 390/8/5 386/8/5 388/8/5
f 391/7/5 384/7/5 390/7/5
f 392/7/5 382/7/5 384/7/5
f 392/7/5 384/7/5 391/7/5
f 393/7/5 382/7/5 392/7/5
f 394/7/5 382/7/5 393/7/5
f 397/7/5 396/7/5 395/7/5
f 398/7/5 396/7/5 397/7/5
f 399/7/5 397/7/5 395/7/5
f 400/7/5 397/7/5 399/7/5
f 403/7/5 402/7/5 401/7/5
f 404/7/5 402/7/5 403/7/5
f 408/4/5 406/4/5 405/4/5
f 409/4/5 406/4/5 408/4/5
f 410/8/5 408/8/5 407/8/5
f 411/8/5 408/8/5 410/8/5
f 414/8/5 413/8/5 412/8/5
f 415/8/5 413/8/5 414/8/5
f 419/1/5 417/1/5 416/1/5
f 422/4/5 419/4/5 418/4/5
f 423/1/5 417/1/5 419/1/5
f 423/4/5 419/4/5 422/4/5
f 424/1/5 417/1/5 423/1/5
f 425/6/5 421/6/5 420/6/5
f 426/6/5 421/6/5 425/6/5
f 430/3/5 428/3/5 427/3/5
f 430/3/5 429/3/5 428/3/5
f 431/3/5 429/3/5 430/3/5
f 432/3/5 429/3/5 431/3/5
f 434/3/5 432/3/5 431/3/5
f 435/1/5 433/1/5 432/1/5
f 435/3/5 432/3/5 434/3/5
f 436/1/5 433/1/5 435/1/5
f 437/1/5 433/1/5 436/1/5
f 440/6/5 439/6/5 438/6/5
f 441/6/5 439/6/5 440/6/5
f 442/5/5 441/5/5 440/5/5
f 443/5/5 441/5/5 442/5/5
f 444/2/5 443/2/5 442/2/5
f 445/2/5 443/2/5 444/2/5
f 449/3/5 447/3/5 446/3/5
f 450/3/5 449/3/5 448/3/5
f 451/3/5 447/3/5 449/3/5
f 451/3/5 449/3/5 450/3/5
f 452/3/5 447/3/5 451/3/5
f 455/3/5 454/3/5 453/3/5
f 456/3/5 454/3/5 455/3/5
f 457/7/6 458/7/6 459/7/6
f 459/7/6 458/7/6 460/7/6
f 461/7/6 462/7/6 463/7/6
f 463/7/6 462/7/6 464/7/6
f 465/1/6 466/1/6 468/1/6
f 468/1/6 466/1/6 469/1/6
f 467/4/6 468/4/6 470/4/6
f 470/4/6 468/4/6 471/4/6
f 472/3/6 473/3/6 475/3/6
f 474/3/6 475/3/6 476/3/6
f 475/3/6 473/3/6 477/3/6
f 476/3/6 475/3/6 477/3/6
f 477/3/6 473/3/6 478/3/6
f 479/1/6 480/1/6 481/1/6
f 481/1/6 480/1/6 482/1/6
f 483/7/6 484/7/6 486/7/6
f 486/7/6 484/7/6 487/7/6
f 485/6/6 486/6/6 488/6/6
f 486/4/6 487/4/6 489/4/6
f 488/6/6 486/6/6 489/6/6
f 489/4/6 487/4/6 490/4/6
f 491/5/6 492/5/6 493/5/6
f 493/5/6 492/5/6 494/5/6
f 495/7/6 496/7/6 497/7/6
f 497/7/6 496/7/6 498/7/6
f 499/1/6 500/1/6 503/1/6
f 503/1/6 500/1/6 504/1/6
f 501/1/6 502/1/6 505/1/6
f 502/7/6 503/7/6 506/7/6
f 505/1/6 502/1/6 506/1/6
f 506/7/6 503/7/6 507/7/6
f 505/3/6 506/3/6 510/3/6
f 510/3/6 506/3/6 511/3/6
f 508/2/6 509/2/6 512/2/6
f 512/2/6 509/2/6 513/2/6
f 514/1/6 515/1/6 518/1/6
f 518/1/6 515/1/6 519/1/6
f 516/3/6 517/3/6 520/3/6
f 520/3/6 517/3/6 521/3/6
f 518/3/6 519/3/6 522/3/6
f 519/3/6 520/3/6 522/3/6
f 522/3/6 520/3/6 523/3/6
f 524/1/6 525/1/6 526/1/6
f 526/1/6 525/1/6 527/1/6
f 528/1/6 529/1/6 531/1/6
f 530/4/6 531/4/6 534/4/6
f 531/1/6 529/1/6 535/1/6
f 534/4/6 531/4/6 535/4/6
f 535/1/6 529/1/6 536/1/6
f 532/3/6 533/3/6 538/3/6
f 538/3/6 533/3/6 539/3/6
f 534/3/6 535/3/6 540/3/6
f 540/3/6 535/3/6 541/3/6
f 538/3/6 539/3/6 542/3/6
f 537/3/6 538/3/6 542/3/6
f 542/3/6 539/3/6 543/3/6
f 537/3/6 542/3/6 547/3/6
f 547/3/6 542/3/6 548/3/6
f 543/6/6 544/6/6 549/6/6
f 549/6/6 544/6/6 550/6/6
f 545/1/6 546/1/6 551/1/6
f 550/7/6 551/7/6 552/7/6
f 551/1/6 546/1/6 553/1/6
f 552/7/6 551/7/6 553/7/6
f 553/1/6 546/1/6 554/1/6
f 555/7/6 556/7/6 559/7/6
f 559/7/6 556/7/6 560/7/6
f 557/1/6 558/1/6 561/1/6
f 559/6/6 560/6/6 562/6/6
f 560/6/6 561/6/6 562/6/6
f 561/1/6 558/1/6 563/1/6
f 562/6/6 561/6/6 563/6/6
f 563/1/6 558/1/6 564/1/6
